<?xml version="1.0" encoding="UTF-8"?>
<!DOCTYPE svg PUBLIC "-//W3C//DTD SVG 1.1//EN" "http://www.w3.org/Graphics/SVG/1.1/DTD/svg11.dtd">
<!-- Creator: CorelDRAW 2018 (64-Bit Evaluation Version) -->
<svg xmlns="http://www.w3.org/2000/svg" xml:space="preserve" width="16.9332mm" height="16.9332mm" version="1.1" style="shape-rendering:geometricPrecision; text-rendering:geometricPrecision; image-rendering:optimizeQuality; fill-rule:evenodd; clip-rule:evenodd"
viewBox="0 0 1693.32 1693.32"
 xmlns:xlink="http://www.w3.org/1999/xlink">
 <defs>
  <style type="text/css">
   <![CDATA[
    .str0 {stroke:#49006B;stroke-width:70.55;stroke-miterlimit:22.9256}
    .fil1 {fill:none}
    .fil0 {fill:#49006B}
   ]]>
  </style>
   <clipPath id="id0">
    <path d="M198.06 105.4l1297.2 0c50.73,0 92.23,41.5 92.23,92.23l0 1298.06c0,50.73 -41.5,92.23 -92.23,92.23l-1297.2 0c-50.73,0 -92.23,-41.5 -92.23,-92.23l0 -1298.06c0,-50.73 41.5,-92.23 92.23,-92.23z"/>
   </clipPath>
 </defs>
 <g id="Layer_x0020_1">
  <metadata id="CorelCorpID_0Corel-Layer"/>
  <g>
  </g>
  <g style="clip-path:url(#id0)">
   <g>
    <g id="_1946254027200">
     <g>
      <path class="fil0" d="M1077.88 384.08l-119.95 -0.19c-134.76,0 -221.85,89.41 -221.85,227.78l0 105.02 -120.61 0c-10.42,0 -18.86,8.45 -18.86,18.88l0 152.16c0,10.42 8.45,18.87 18.86,18.87l120.61 0 0 383.96c0,10.42 8.43,18.87 18.86,18.87l157.36 0c10.42,0 18.86,-8.45 18.86,-18.87l0 -383.96 141.01 0c10.42,0 18.86,-8.44 18.86,-18.87l0.06 -152.16c0,-5.01 -1.99,-9.8 -5.52,-13.34 -3.53,-3.55 -8.35,-5.54 -13.35,-5.54l-141.06 0 0 -89.03c0,-42.79 10.19,-64.51 65.9,-64.51l80.8 -0.03c10.41,0 18.85,-8.45 18.85,-18.87l0 -141.29c0,-10.41 -8.43,-18.86 -18.83,-18.88z"/>
     </g>
     <g>
     </g>
     <g>
     </g>
     <g>
     </g>
     <g>
     </g>
     <g>
     </g>
     <g>
     </g>
     <g>
     </g>
     <g>
     </g>
     <g>
     </g>
     <g>
     </g>
     <g>
     </g>
     <g>
     </g>
     <g>
     </g>
     <g>
     </g>
     <g>
     </g>
    </g>
   </g>
  </g>
  <path class="fil1 str0" d="M198.06 105.4l1297.2 0c50.73,0 92.23,41.5 92.23,92.23l0 1298.06c0,50.73 -41.5,92.23 -92.23,92.23l-1297.2 0c-50.73,0 -92.23,-41.5 -92.23,-92.23l0 -1298.06c0,-50.73 41.5,-92.23 92.23,-92.23z"/>
 </g>
</svg>
