<?xml version="1.0" encoding="UTF-8"?>
<!DOCTYPE svg PUBLIC "-//W3C//DTD SVG 1.1//EN" "http://www.w3.org/Graphics/SVG/1.1/DTD/svg11.dtd">
<!-- Creator: CorelDRAW 2018 (64-Bit Evaluation Version) -->
<svg xmlns="http://www.w3.org/2000/svg" xml:space="preserve" width="16.9332mm" height="16.9332mm" version="1.1" style="shape-rendering:geometricPrecision; text-rendering:geometricPrecision; image-rendering:optimizeQuality; fill-rule:evenodd; clip-rule:evenodd"
viewBox="0 0 1693.32 1693.32"
 xmlns:xlink="http://www.w3.org/1999/xlink">
 <defs>
  <style type="text/css">
   <![CDATA[
    .str0 {stroke:#49006B;stroke-width:70.55;stroke-miterlimit:22.9256}
    .fil1 {fill:none}
    .fil0 {fill:#49006B}
   ]]>
  </style>
 </defs>
 <g id="Layer_x0020_1">
  <metadata id="CorelCorpID_0Corel-Layer"/>
  <g id="_1946124729856">
   <g>
    <path class="fil0" d="M1168.44 391.57l-643.56 0c-73.52,0 -133.34,59.82 -133.34,133.33l0 643.52c0,73.51 59.82,133.33 133.34,133.33l643.56 0c73.52,0 133.34,-59.82 133.34,-133.33l0 -643.52c0,-73.51 -59.82,-133.33 -133.34,-133.33zm-320 693.3c-132.34,0 -240.01,-107.65 -240.01,-239.99 0,-132.33 107.67,-239.98 240.01,-239.98 132.34,0 240,107.65 240,239.98 0,132.34 -107.66,239.99 -240,239.99zm266.67 -426.64c-44.11,0 -80,-35.89 -80,-80 0,-44.11 35.89,-80 80,-80 44.11,0 80,35.89 80,80 0,44.11 -35.89,80 -80,80zm0 0z"/>
    <path class="fil0" d="M1115.11 551.57c-14.72,0 -26.67,11.95 -26.67,26.66 0,14.71 11.95,26.67 26.67,26.67 14.71,0 26.67,-11.96 26.67,-26.67 0,-14.71 -11.96,-26.66 -26.67,-26.66zm0 0z"/>
    <path class="fil0" d="M848.44 658.23c-102.92,0 -186.67,83.74 -186.67,186.65 0,102.91 83.75,186.66 186.67,186.66 102.92,0 186.67,-83.75 186.67,-186.66 0,-102.91 -83.75,-186.65 -186.67,-186.65zm0 0z"/>
   </g>
   <rect class="fil1 str0" x="105.82" y="105.82" width="1481.68" height="1481.68" rx="92.24" ry="92.24"/>
  </g>
 </g>
</svg>
