<?xml version="1.0" encoding="UTF-8"?>
<!DOCTYPE svg PUBLIC "-//W3C//DTD SVG 1.1//EN" "http://www.w3.org/Graphics/SVG/1.1/DTD/svg11.dtd">
<!-- Creator: CorelDRAW 2018 (64-Bit Evaluation Version) -->
<svg xmlns="http://www.w3.org/2000/svg" xml:space="preserve" width="16.9332mm" height="16.9332mm" version="1.1" style="shape-rendering:geometricPrecision; text-rendering:geometricPrecision; image-rendering:optimizeQuality; fill-rule:evenodd; clip-rule:evenodd"
viewBox="0 0 1693.32 1693.32"
 xmlns:xlink="http://www.w3.org/1999/xlink">
 <defs>
  <style type="text/css">
   <![CDATA[
    .str0 {stroke:#49006B;stroke-width:70.55;stroke-miterlimit:22.9256}
    .fil1 {fill:none}
    .fil0 {fill:#49006B}
   ]]>
  </style>
   <clipPath id="id0">
    <path d="M198.06 105.82l1297.2 0c50.74,0 92.24,41.5 92.24,92.24l0 1297.2c0,50.74 -41.5,92.24 -92.24,92.24l-1297.2 0c-50.74,0 -92.24,-41.5 -92.24,-92.24l0 -1297.2c0,-50.74 41.5,-92.24 92.24,-92.24z"/>
   </clipPath>
 </defs>
 <g id="Layer_x0020_1">
  <metadata id="CorelCorpID_0Corel-Layer"/>
  <g>
  </g>
  <g style="clip-path:url(#id0)">
   <g>
    <g id="_1946245926976">
     <g>
      <path class="fil0" d="M1251.71 441.61c-33.37,-33.38 -73.58,-50.07 -120.59,-50.07l-568.91 0c-47.01,0 -87.21,16.69 -120.6,50.07 -33.38,33.39 -50.07,73.59 -50.07,120.6l0 568.9c0,47 16.69,87.21 50.07,120.59 33.39,33.39 73.59,50.08 120.6,50.08l568.91 0c47.01,0 87.21,-16.69 120.58,-50.08 33.39,-33.38 50.08,-73.59 50.08,-120.59l0 -568.9c0,-47.01 -16.7,-87.22 -50.07,-120.6zm-582.83 712.01l-136.89 0 0 -411.26 136.89 0 0 411.26zm-12.44 -487.41c-14.22,13.63 -32.99,20.45 -56.3,20.45l-0.6 0c-22.51,0 -40.78,-6.82 -54.81,-20.45 -14.03,-13.63 -21.04,-30.52 -21.04,-50.66 0,-20.55 7.21,-37.54 21.63,-50.97 14.43,-13.43 33.09,-20.15 56,-20.15 22.91,0 41.29,6.72 55.12,20.15 13.82,13.43 20.94,30.42 21.33,50.97 0,20.14 -7.11,37.02 -21.33,50.66zm504.9 487.41l-136.89 0 0 -219.85c0,-62.02 -22.91,-93.03 -68.74,-93.03 -17.38,0 -32.01,4.83 -43.85,14.51 -11.87,9.68 -20.75,21.43 -26.67,35.27 -2.77,7.1 -4.15,18.16 -4.15,33.17l0 229.93 -136.89 0c1.18,-248.1 1.18,-385.19 0,-411.27l136.89 0 0 58.06c28.78,-45 69.65,-67.54 122.67,-67.54 47.41,0 85.54,15.6 114.38,46.81 28.84,31.21 43.26,77.24 43.26,138.07l0 235.87 -0.01 0z"/>
     </g>
     <g>
     </g>
     <g>
     </g>
     <g>
     </g>
     <g>
     </g>
     <g>
     </g>
     <g>
     </g>
     <g>
     </g>
     <g>
     </g>
     <g>
     </g>
     <g>
     </g>
     <g>
     </g>
     <g>
     </g>
     <g>
     </g>
     <g>
     </g>
     <g>
     </g>
    </g>
   </g>
  </g>
  <path class="fil1 str0" d="M198.06 105.82l1297.2 0c50.74,0 92.24,41.5 92.24,92.24l0 1297.2c0,50.74 -41.5,92.24 -92.24,92.24l-1297.2 0c-50.74,0 -92.24,-41.5 -92.24,-92.24l0 -1297.2c0,-50.74 41.5,-92.24 92.24,-92.24z"/>
 </g>
</svg>
