<?xml version="1.0" encoding="UTF-8"?>
<!DOCTYPE svg PUBLIC "-//W3C//DTD SVG 1.1//EN" "http://www.w3.org/Graphics/SVG/1.1/DTD/svg11.dtd">
<!-- Creator: CorelDRAW 2018 (64-Bit Evaluation Version) -->
<svg xmlns="http://www.w3.org/2000/svg" xml:space="preserve" width="38.9466mm" height="11.7686mm" version="1.1" style="shape-rendering:geometricPrecision; text-rendering:geometricPrecision; image-rendering:optimizeQuality; fill-rule:evenodd; clip-rule:evenodd"
viewBox="0 0 3894.66 1176.86"
 xmlns:xlink="http://www.w3.org/1999/xlink">
 <defs>
  <style type="text/css">
   <![CDATA[
    .str0 {stroke:#FEFEFE;stroke-width:20;stroke-miterlimit:22.9256}
    .fil2 {fill:none}
    .fil0 {fill:#FEFEFE}
    .fil1 {fill:#FEFEFE;fill-rule:nonzero}
   ]]>
  </style>
 </defs>
 <g id="Layer_x0020_1">
  <metadata id="CorelCorpID_0Corel-Layer"/>
  <path class="fil0" d="M16.94 83.75l1093.71 0 0 9.37 -79.72 0 -241.49 602.49 63.21 0c7.03,0 12.92,-1.96 17.71,-5.88 4.77,-3.92 8.14,-8.4 10.11,-13.45l56.47 -145.36 173.71 0 0 645.95 -1093.71 0 0 -1093.12zm1093.71 196.04l0 192.72 -150.95 0 94.82 -244.8c2.81,-7.28 5.76,-15.83 8.71,-25.49 2.95,-9.66 5.9,-20.17 8.99,-31.65 5.9,22.69 11.94,41.59 18.12,56.72l20.31 52.5z"/>
  <path class="fil1" d="M1597.54 635.95c16.29,0 31.32,-0.7 44.94,-2.24 13.64,-1.54 26.41,-3.78 38.5,-6.86 12.08,-3.08 23.45,-6.73 34.13,-10.93 10.68,-4.34 21.36,-9.24 32.03,-14.7l0 -133.33 -93.55 0c-5.34,0 -9.56,-1.54 -12.79,-4.62 -3.23,-3.08 -4.92,-6.86 -4.92,-11.34l0 -46.22 185.43 0 0 231.5c-15.17,10.92 -30.91,20.45 -47.34,28.57 -16.44,8.12 -33.99,14.84 -52.68,20.31 -18.68,5.46 -38.76,9.52 -60.12,12.18 -21.35,2.66 -44.54,4.06 -69.53,4.06 -43.84,0 -84.01,-7.56 -120.54,-22.55 -36.52,-14.98 -67.99,-35.99 -94.4,-63.02 -26.41,-27.03 -46.91,-59.52 -61.66,-97.33 -14.75,-37.81 -22.2,-79.41 -22.2,-124.92 0,-45.94 7.31,-87.81 21.77,-125.63 14.48,-37.81 35.12,-70.3 61.95,-97.33 26.83,-27.03 59.28,-48.04 97.36,-62.88 38.07,-14.85 80.63,-22.27 127.83,-22.27 23.88,0 46.08,1.82 66.58,5.32 20.51,3.5 39.62,8.54 57.18,15.27 17.56,6.58 33.71,14.7 48.6,24.09 14.89,9.52 28.8,20.16 41.72,32.07l-23.17 36.41c-4.78,7.42 -10.96,11.2 -18.55,11.2 -4.49,0 -9.4,-1.54 -14.75,-4.62 -7.02,-3.92 -14.89,-8.68 -23.59,-14.28 -8.72,-5.61 -19.25,-11.07 -31.76,-16.25 -12.5,-5.18 -27.24,-9.52 -44.24,-13.16 -17.01,-3.65 -37.23,-5.47 -60.55,-5.47 -33.99,0 -64.76,5.47 -92.29,16.53 -27.53,11.06 -51,26.89 -70.38,47.48 -19.38,20.58 -34.28,45.51 -44.67,74.78 -10.4,29.27 -15.6,62.18 -15.6,98.6 0,38.09 5.48,71.98 16.3,101.81 10.81,29.83 25.99,55.18 45.65,75.91 19.67,20.72 42.99,36.55 69.96,47.47 26.98,10.93 56.76,16.39 89.35,16.39z"/>
  <path id="1" class="fil1" d="M2181.64 630.91c24.99,0 47.33,-4.2 67,-12.61 19.67,-8.4 36.38,-20.16 50.01,-35.29 13.62,-15.12 24.02,-33.19 31.19,-54.2 7.16,-21 10.67,-44.11 10.67,-69.32l0 -365.95 81.34 0 0 366.23c0,34.73 -5.48,66.94 -16.58,96.63 -11.1,29.69 -26.97,55.46 -47.62,77.17 -20.65,21.71 -45.94,38.79 -75.72,51.12 -29.78,12.32 -63.21,18.48 -100.29,18.48 -37.1,0 -70.53,-6.16 -100.31,-18.48 -29.78,-12.33 -55.07,-29.41 -75.85,-51.12 -20.79,-21.71 -36.67,-47.48 -47.77,-77.17 -11.09,-29.69 -16.72,-61.9 -16.72,-96.63l0 -366.23 81.34 0 0 365.53c0,25.21 3.65,48.32 10.81,69.32 7.18,21.01 17.57,39.08 31.2,54.2 13.62,15.13 30.34,26.89 50.14,35.43 19.81,8.55 42.15,12.89 67.16,12.89z"/>
  <path id="2" class="fil1" d="M2604.32 93.12c7.31,0 12.78,0.84 16.3,2.66 3.52,1.82 7.45,5.6 11.94,11.21l349.79 453.75c-0.85,-7.28 -1.41,-14.42 -1.69,-21.28 -0.28,-6.87 -0.42,-13.45 -0.42,-19.89l0 -426.45 71.64 0 0 602.49 -41.3 0c-6.46,0 -11.79,-1.12 -16.16,-3.36 -4.35,-2.24 -8.7,-6.02 -12.92,-11.35l-349.36 -453.33c0.56,7 0.98,13.86 1.26,20.59 0.28,6.72 0.42,12.88 0.42,18.48l0 428.97 -71.63 0 0 -602.49 42.13 0z"/>
  <path id="3" class="fil1" d="M3468.68 635.95c16.29,0 31.32,-0.7 44.95,-2.24 13.63,-1.54 26.41,-3.78 38.49,-6.86 12.08,-3.08 23.45,-6.73 34.14,-10.93 10.67,-4.34 21.35,-9.24 32.02,-14.7l0 -133.33 -93.55 0c-5.34,0 -9.56,-1.54 -12.79,-4.62 -3.23,-3.08 -4.91,-6.86 -4.91,-11.34l0 -46.22 185.42 0 0 231.5c-15.17,10.92 -30.9,20.45 -47.33,28.57 -16.44,8.12 -34,14.84 -52.68,20.31 -18.69,5.46 -38.77,9.52 -60.13,12.18 -21.35,2.66 -44.53,4.06 -69.53,4.06 -43.83,0 -84,-7.56 -120.54,-22.55 -36.52,-14.98 -67.98,-35.99 -94.39,-63.02 -26.41,-27.03 -46.92,-59.52 -61.67,-97.33 -14.75,-37.81 -22.2,-79.41 -22.2,-124.92 0,-45.94 7.31,-87.81 21.78,-125.63 14.47,-37.81 35.11,-70.3 61.95,-97.33 26.83,-27.03 59.28,-48.04 97.35,-62.88 38.07,-14.85 80.63,-22.27 127.83,-22.27 23.88,0 46.08,1.82 66.58,5.32 20.52,3.5 39.63,8.54 57.18,15.27 17.56,6.58 33.71,14.7 48.61,24.09 14.88,9.52 28.79,20.16 41.71,32.07l-23.17 36.41c-4.78,7.42 -10.96,11.2 -18.54,11.2 -4.5,0 -9.41,-1.54 -14.76,-4.62 -7.02,-3.92 -14.88,-8.68 -23.59,-14.28 -8.72,-5.61 -19.25,-11.07 -31.76,-16.25 -12.49,-5.18 -27.24,-9.52 -44.24,-13.16 -17,-3.65 -37.22,-5.47 -60.55,-5.47 -33.99,0 -64.75,5.47 -92.29,16.53 -27.53,11.06 -50.99,26.89 -70.38,47.48 -19.38,20.58 -34.28,45.51 -44.67,74.78 -10.4,29.27 -15.6,62.18 -15.6,98.6 0,38.09 5.48,71.98 16.3,101.81 10.82,29.83 25.99,55.18 45.65,75.91 19.67,20.72 42.99,36.55 69.97,47.47 26.97,10.93 56.75,16.39 89.34,16.39z"/>
  <path class="fil1" d="M1409.35 852.1c-0.84,1.4 -1.73,2.43 -2.66,3.13 -0.93,0.7 -2.15,1.07 -3.64,1.07 -1.59,0 -3.41,-0.79 -5.5,-2.38 -2.1,-1.58 -4.77,-3.36 -7.99,-5.27 -3.22,-1.91 -7.1,-3.64 -11.62,-5.23 -4.54,-1.58 -10.05,-2.38 -16.49,-2.38 -6.07,0 -11.44,0.8 -16.1,2.43 -4.67,1.63 -8.55,3.87 -11.68,6.67 -3.13,2.8 -5.51,6.07 -7.09,9.85 -1.59,3.78 -2.38,7.88 -2.38,12.27 0,5.6 1.4,10.22 4.15,13.91 2.75,3.68 6.39,6.86 10.92,9.47 4.54,2.61 9.67,4.85 15.41,6.77 5.75,1.91 11.63,3.91 17.65,5.97 6.03,2.05 11.91,4.34 17.65,6.9 5.75,2.57 10.88,5.84 15.4,9.76 4.53,3.92 8.17,8.72 10.93,14.42 2.76,5.69 4.11,12.69 4.11,20.99 0,8.78 -1.49,16.99 -4.48,24.69 -3,7.7 -7.34,14.42 -13.08,20.11 -5.73,5.69 -12.79,10.17 -21.14,13.44 -8.37,3.27 -17.89,4.9 -28.54,4.9 -12.97,0 -24.78,-2.38 -35.48,-7.09 -10.69,-4.72 -19.84,-11.11 -27.4,-19.18l7.84 -12.88c0.75,-1.07 1.68,-1.91 2.75,-2.61 1.08,-0.7 2.24,-1.08 3.56,-1.08 1.96,0 4.2,1.08 6.72,3.18 2.52,2.1 5.69,4.38 9.47,6.9 3.79,2.52 8.36,4.86 13.73,6.96 5.37,2.09 11.91,3.12 19.65,3.12 6.45,0 12.19,-0.89 17.23,-2.66 5.04,-1.77 9.35,-4.29 12.85,-7.51 3.5,-3.22 6.16,-7.05 8.02,-11.53 1.87,-4.48 2.8,-9.47 2.8,-14.98 0,-6.06 -1.35,-11.06 -4.1,-14.93 -2.76,-3.87 -6.4,-7.09 -10.88,-9.7 -4.49,-2.62 -9.57,-4.86 -15.31,-6.68 -5.74,-1.82 -11.63,-3.68 -17.65,-5.6 -6.02,-1.91 -11.91,-4.1 -17.65,-6.62 -5.74,-2.52 -10.88,-5.79 -15.36,-9.8 -4.48,-4.02 -8.08,-9.05 -10.84,-15.07 -2.75,-6.02 -4.15,-13.44 -4.15,-22.31 0,-7.09 1.4,-13.95 4.15,-20.58 2.76,-6.62 6.73,-12.5 11.96,-17.64 5.22,-5.13 11.72,-9.24 19.42,-12.32 7.71,-3.08 16.53,-4.62 26.52,-4.62 11.2,0 21.43,1.78 30.67,5.37 9.25,3.55 17.32,8.73 24.24,15.49l-6.59 12.88z"/>
  <polygon id="1" class="fil1" points="1578.69,820.6 1578.69,842.72 1482.33,842.72 1482.33,909.36 1560.34,909.36 1560.34,930.64 1482.33,930.64 1482.33,999.23 1578.69,999.23 1578.69,1021.35 1455.02,1021.35 1455.02,820.6 "/>
  <path id="2" class="fil1" d="M1631.78 820.6c2.42,0 4.25,0.28 5.42,0.89 1.17,0.61 2.47,1.87 3.97,3.73l116.25 151.19c-0.28,-2.42 -0.47,-4.8 -0.56,-7.09 -0.09,-2.29 -0.14,-4.48 -0.14,-6.63l0 -142.09 23.81 0 0 200.75 -13.72 0c-2.15,0 -3.93,-0.37 -5.38,-1.12 -1.45,-0.75 -2.89,-2.01 -4.29,-3.78l-116.11 -151.05c0.18,2.33 0.32,4.62 0.42,6.86 0.09,2.24 0.14,4.29 0.14,6.16l0 142.93 -23.81 0 0 -200.75 14 0z"/>
  <path id="3" class="fil1" d="M1905.04 952.01c0,11.2 -1.35,21.23 -4.1,30.1 -2.76,8.91 -6.82,16.37 -12.19,22.49 -5.37,6.11 -12,10.82 -19.84,14.09 -7.84,3.27 -16.86,4.9 -27.03,4.9 -9.07,0 -18.49,-1.31 -28.3,-3.87 0.19,-2.71 0.42,-5.42 0.7,-8.08 0.28,-2.66 0.56,-5.32 0.84,-7.93 0.19,-1.59 0.79,-2.85 1.77,-3.83 0.98,-0.98 2.44,-1.49 4.4,-1.49 1.68,0 3.92,0.42 6.72,1.26 2.8,0.84 6.53,1.26 11.21,1.26 6.16,0 11.66,-0.93 16.47,-2.8 4.82,-1.86 8.88,-4.76 12.19,-8.68 3.31,-3.92 5.83,-8.96 7.57,-15.07 1.72,-6.11 2.56,-13.39 2.56,-21.79l0 -131.97 27.03 0 0 131.41z"/>
  <path id="4" class="fil1" d="M2111.22 1021.35l-21.01 0c-2.43,0 -4.39,-0.61 -5.88,-1.82 -1.49,-1.21 -2.61,-2.75 -3.36,-4.62l-18.77 -48.44 -90.06 0 -18.77 48.44c-0.66,1.68 -1.78,3.17 -3.36,4.48 -1.59,1.31 -3.56,1.96 -5.89,1.96l-21.01 0 80.25 -200.75 27.6 0 80.26 200.75zm-131.52 -74.33l74.93 0 -31.51 -81.71c-2.06,-5.04 -4.07,-11.34 -6.03,-18.9 -1.02,3.83 -2,7.33 -2.98,10.55 -0.98,3.21 -1.96,6.06 -2.9,8.49l-31.51 81.57z"/>
  <path id="5" class="fil1" d="M2190.92 942.72l0 78.63 -27.04 0 0 -78.63 -73.53 -122.12 23.81 0c2.43,0 4.35,0.61 5.75,1.87 1.4,1.21 2.61,2.71 3.64,4.53l45.93 79.18c1.88,3.32 3.47,6.44 4.73,9.38 1.26,2.94 2.38,5.84 3.4,8.68 1.03,-2.94 2.15,-5.88 3.36,-8.82 1.22,-2.94 2.76,-6.02 4.62,-9.24l45.81 -79.18c0.84,-1.5 2.01,-2.94 3.45,-4.34 1.45,-1.36 3.32,-2.06 5.65,-2.06l24.1 0 -73.68 122.12z"/>
  <path id="6" class="fil1" d="M2431.98 1021.35l-21.01 0c-2.44,0 -4.4,-0.61 -5.89,-1.82 -1.49,-1.21 -2.61,-2.75 -3.36,-4.62l-18.77 -48.44 -90.06 0 -18.77 48.44c-0.66,1.68 -1.78,3.17 -3.36,4.48 -1.59,1.31 -3.55,1.96 -5.88,1.96l-21.01 0 80.25 -200.75 27.59 0 80.27 200.75zm-131.52 -74.33l74.93 0 -31.52 -81.71c-2.05,-5.04 -4.06,-11.34 -6.02,-18.9 -1.02,3.83 -2,7.33 -2.99,10.55 -0.98,3.21 -1.96,6.06 -2.9,8.49l-31.5 81.57z"/>
  <ellipse class="fil2 str0" cx="3791.59" cy="96.93" rx="66.71" ry="66.69"/>
  <path class="fil1" d="M3783.85 103.26l0 23.71 -11.29 0 0 -60.72 18.51 0c4.15,0 7.7,0.44 10.65,1.29 2.95,0.85 5.37,2.04 7.26,3.58 1.89,1.55 3.27,3.38 4.16,5.52 0.88,2.16 1.31,4.51 1.31,7.08 0,2.06 -0.29,3.99 -0.9,5.81 -0.6,1.81 -1.46,3.46 -2.6,4.95 -1.13,1.49 -2.53,2.79 -4.19,3.91 -1.67,1.12 -3.57,2.02 -5.7,2.69 1.43,0.81 2.66,1.97 3.7,3.48l15.19 22.41 -10.16 0c-0.98,0 -1.8,-0.2 -2.49,-0.59 -0.68,-0.39 -1.27,-0.95 -1.75,-1.68l-12.76 -19.43c-0.48,-0.72 -0.99,-1.24 -1.57,-1.55 -0.57,-0.31 -1.42,-0.46 -2.54,-0.46l-4.83 0zm0 -8.14l7.05 0c2.13,0 4,-0.27 5.58,-0.8 1.58,-0.53 2.88,-1.27 3.9,-2.21 1.02,-0.93 1.78,-2.04 2.28,-3.33 0.5,-1.28 0.75,-2.69 0.75,-4.23 0,-3.08 -1,-5.44 -3.03,-7.09 -2.03,-1.66 -5.13,-2.48 -9.31,-2.48l-7.22 0 0 20.14z"/>
 </g>
</svg>
