<?xml version="1.0" encoding="UTF-8"?>
<!DOCTYPE svg PUBLIC "-//W3C//DTD SVG 1.1//EN" "http://www.w3.org/Graphics/SVG/1.1/DTD/svg11.dtd">
<!-- Creator: CorelDRAW 2018 (64-Bit Evaluation Version) -->
<svg xmlns="http://www.w3.org/2000/svg" xml:space="preserve" width="40.3012mm" height="40.3012mm" version="1.1" style="shape-rendering:geometricPrecision; text-rendering:geometricPrecision; image-rendering:optimizeQuality; fill-rule:evenodd; clip-rule:evenodd"
viewBox="0 0 4030.12 4030.12"
 xmlns:xlink="http://www.w3.org/1999/xlink">
 <defs>
  <style type="text/css">
   <![CDATA[
    .fil0 {fill:#FEFEFE}
   ]]>
  </style>
 </defs>
 <g id="Layer_x0020_1">
  <metadata id="CorelCorpID_0Corel-Layer"/>
  <g id="_1938572438064">
   <g>
    <g>
     <path class="fil0" d="M2015.06 1.29c-1110.37,0 -2013.77,903.4 -2013.77,2013.77 0,1110.37 903.4,2013.77 2013.77,2013.77 1110.37,0 2013.77,-903.4 2013.77,-2013.77 0,-1110.37 -903.39,-2013.77 -2013.77,-2013.77zm0 3852.43c-1013.89,0 -1838.66,-824.77 -1838.66,-1838.66 0,-1013.89 824.77,-1838.66 1838.66,-1838.66 1013.89,0 1838.66,824.77 1838.66,1838.66 0,1013.89 -824.77,1838.66 -1838.66,1838.66z"/>
    </g>
   </g>
   <g>
    <g>
     <path class="fil0" d="M2015.06 1577.29c-241.3,0 -437.77,196.47 -437.77,437.77 0,241.3 196.47,437.77 437.77,437.77 241.3,0 437.77,-196.47 437.77,-437.77 0,-241.3 -196.46,-437.77 -437.77,-437.77zm0 700.44c-144.82,0 -262.67,-117.85 -262.67,-262.67 0,-144.82 117.85,-262.67 262.67,-262.67 144.82,0 262.67,117.85 262.67,262.67 0,144.82 -117.85,262.67 -262.67,262.67z"/>
    </g>
   </g>
   <g>
    <g>
     <path class="fil0" d="M2438.13 1091l-350.22 -525.33c-32.57,-48.69 -113.12,-48.69 -145.69,0l-350.23 525.33c-17.86,26.79 -19.61,61.46 -4.37,89.83 15.23,28.37 44.82,46.23 77.22,46.23l700.44 0c32.4,0 61.99,-17.86 77.23,-46.23 15.23,-28.37 13.48,-63.04 -4.38,-89.83zm-609.74 -39.05l186.67 -280 186.67 280 -373.34 0z"/>
    </g>
   </g>
   <g>
    <g>
     <path class="fil0" d="M2442.51 2849.29c-15.24,-28.37 -44.83,-46.23 -77.23,-46.23l-700.44 0c-32.4,0 -61.99,17.86 -77.22,46.23 -15.23,28.36 -13.49,63.04 4.37,89.83l350.23 525.33c16.28,24.52 43.6,39.05 72.85,39.05 29.24,0 56.56,-14.54 72.85,-39.05l350.22 -525.33c17.85,-26.79 19.6,-61.46 4.37,-89.83zm-427.45 408.89l-186.67 -280.01 373.34 0 -186.67 280.01z"/>
    </g>
   </g>
   <g>
   </g>
   <g>
   </g>
   <g>
   </g>
   <g>
   </g>
   <g>
   </g>
   <g>
   </g>
   <g>
   </g>
   <g>
   </g>
   <g>
   </g>
   <g>
   </g>
   <g>
   </g>
   <g>
   </g>
   <g>
   </g>
   <g>
   </g>
   <g>
   </g>
  </g>
 </g>
</svg>
