<?xml version="1.0" encoding="UTF-8"?>
<!DOCTYPE svg PUBLIC "-//W3C//DTD SVG 1.1//EN" "http://www.w3.org/Graphics/SVG/1.1/DTD/svg11.dtd">
<!-- Creator: CorelDRAW 2018 (64-Bit Evaluation Version) -->
<svg xmlns="http://www.w3.org/2000/svg" xml:space="preserve" width="52.9166mm" height="17.6106mm" version="1.1" style="shape-rendering:geometricPrecision; text-rendering:geometricPrecision; image-rendering:optimizeQuality; fill-rule:evenodd; clip-rule:evenodd"
viewBox="0 0 5291.66 1761.06"
 xmlns:xlink="http://www.w3.org/1999/xlink">
 <defs>
  <style type="text/css">
   <![CDATA[
    .fil1 {fill:none}
    .fil0 {fill:#FEFEFE;fill-rule:nonzero}
   ]]>
  </style>
   <clipPath id="id0">
    <path d="M-0.01 0l5291.68 0 0 1761.06 -5291.68 0 0 -1761.06z"/>
   </clipPath>
 </defs>
 <g id="Layer_x0020_1">
  <metadata id="CorelCorpID_0Corel-Layer"/>
  <g>
  </g>
  <g style="clip-path:url(#id0)">
   <g>
    <path class="fil0" d="M610.64 1063.11l-29.92 -103.93 -154.97 0 -30.14 103.93 -122.81 0 159.23 -473 147.34 0 159.23 473 -127.96 0zm-108.69 -372.65l-52.89 182.24 108.01 0 -52.55 -182.24 -2.57 0z"/>
    <path id="1" class="fil0" d="M934.69 974.28c20.95,0 37.42,-7.83 49.3,-23.38 11.99,-15.66 17.93,-37.82 17.93,-66.46 0,-28.41 -6.05,-50.9 -18.04,-67.68 -11.99,-16.67 -28.46,-25.06 -49.19,-25.06 -20.84,0 -37.2,8.28 -49.08,24.95 -11.99,16.56 -17.93,39.16 -17.93,67.79 0,28.64 5.83,50.8 17.6,66.46 11.65,15.55 28.12,23.38 49.41,23.38zm-3.7 223.18c-50.09,0 -90.65,-10.29 -121.57,-30.76 -31.04,-20.59 -48.07,-47.32 -51.44,-80.33l112.61 0c2.92,10.52 9.98,18.91 21.41,25.4 11.32,6.49 25.21,9.62 41.68,9.62 21.85,0 38.66,-5.26 50.31,-16 11.77,-10.74 17.59,-25.17 17.59,-43.29l0 -65.56 -2.24 0c-7.28,19.02 -20.61,34.35 -40.22,46.09 -19.61,11.64 -42.47,17.57 -68.47,17.57 -43.36,0 -77.87,-15.66 -103.53,-46.88 -25.77,-31.32 -38.66,-74.5 -38.66,-129.77 0,-57.06 12.77,-101.8 38.32,-134.14 25.44,-32.33 60.62,-48.44 105.55,-48.44 25.33,0 47.51,6.27 66.56,18.8 19.05,12.53 32.72,29.09 41.12,49.67l2.25 0 0 -63.21 115.52 0 0 352.96c0,42.18 -17.14,75.74 -51.32,100.8 -34.29,24.94 -79.44,37.47 -135.47,37.47z"/>
    <path id="2" class="fil0" d="M1522.51 706.23l0 356.88 -112.83 0 0 -67.58 -2.36 0c-17.03,49.67 -51.77,74.4 -104.09,74.51 -38.89,-0.11 -70.49,-12.08 -94.69,-36.13 -24.2,-24.06 -36.3,-56.84 -36.3,-98.34l0 -229.34 116.53 0 0 204.17c0,20.92 5.16,37.03 15.46,48.1 10.31,11.19 24.65,16.79 43.03,16.79 17.93,0 32.27,-6.16 43.03,-18.35 10.64,-12.31 16.02,-28.53 16.02,-48.89l0 -201.82 116.2 0z"/>
    <path id="3" class="fil0" d="M1578.65 1063.11l0 -356.88 113.28 0 0 67.13 2.24 0c9.19,-24.06 23.2,-42.4 41.91,-55.05 18.71,-12.64 41.57,-19.01 68.8,-19.01 39.55,0 70.14,11.74 91.66,35.35 21.62,23.6 32.38,56.72 32.38,99.34l0 229.12 -116.2 0 0 -204.17c0,-20.59 -4.93,-36.47 -14.56,-47.88 -9.75,-11.3 -24.09,-17.01 -42.92,-17.01 -18.37,0 -32.94,6.16 -43.81,18.68 -10.87,12.42 -16.25,28.64 -16.25,48.45l0 201.93 -116.53 0z"/>
    <path id="4" class="fil0" d="M2158.74 974.28c20.95,0 37.42,-7.83 49.3,-23.38 11.99,-15.66 17.93,-37.82 17.93,-66.46 0,-28.41 -6.05,-50.9 -18.04,-67.68 -11.99,-16.67 -28.46,-25.06 -49.19,-25.06 -20.84,0 -37.2,8.28 -49.08,24.95 -11.99,16.56 -17.93,39.16 -17.93,67.79 0,28.64 5.83,50.8 17.6,66.46 11.65,15.55 28.12,23.38 49.41,23.38zm-3.7 223.18c-50.09,0 -90.65,-10.29 -121.57,-30.76 -31.04,-20.59 -48.07,-47.32 -51.44,-80.33l112.61 0c2.92,10.52 9.98,18.91 21.41,25.4 11.32,6.49 25.21,9.62 41.68,9.62 21.85,0 38.66,-5.26 50.31,-16 11.77,-10.74 17.59,-25.17 17.59,-43.29l0 -65.56 -2.24 0c-7.28,19.02 -20.61,34.35 -40.22,46.09 -19.61,11.64 -42.47,17.57 -68.47,17.57 -43.36,0 -77.87,-15.66 -103.53,-46.88 -25.77,-31.32 -38.66,-74.5 -38.66,-129.77 0,-57.06 12.77,-101.8 38.32,-134.14 25.44,-32.33 60.62,-48.44 105.55,-48.44 25.33,0 47.51,6.27 66.56,18.8 19.05,12.53 32.72,29.09 41.12,49.67l2.25 0 0 -63.21 115.52 0 0 352.96c0,42.18 -17.14,75.74 -51.32,100.8 -34.29,24.94 -79.44,37.47 -135.47,37.47z"/>
    <path id="5" class="fil0" d="M2521.11 926.06l114.52 0c2.24,16 11.32,28.98 27.45,39.04 16.03,10.07 35.41,15.11 57.94,15.11 23.19,0 41.9,-4.7 56.13,-13.99 14.23,-9.28 21.29,-21.14 21.29,-35.57 0,-13.09 -5.49,-23.27 -16.58,-30.65 -10.98,-7.28 -30.15,-13.77 -57.26,-19.47l-62.08 -12.08c-43.47,-8.28 -76.42,-24.06 -98.83,-47.1 -22.29,-23.05 -33.39,-52.58 -33.39,-88.61 0,-45.42 17.48,-82 52.67,-109.52 35.07,-27.52 80.34,-41.28 135.69,-41.28 58.72,0 104.77,13.2 138.38,39.49 33.62,26.4 50.76,61.87 51.44,106.73l-111.05 0c-1.01,-17.12 -8.74,-30.54 -22.97,-40.39 -14.23,-9.73 -32.38,-14.65 -54.46,-14.65 -21.06,0 -37.87,4.36 -50.75,13.09 -12.78,8.72 -19.17,20.25 -19.17,34.68 0,12.75 5.5,22.93 16.59,30.65 11.09,7.83 29.02,14.21 54.01,19.24l61.4 11.41c46.62,8.95 80.79,24.39 102.75,46.21 21.85,21.92 32.83,51.46 32.83,88.82 0,46.99 -18.04,84.47 -54.23,112.32 -36.08,27.86 -84.71,41.73 -145.67,41.73 -60.73,0 -108.46,-12.75 -143.31,-38.37 -34.96,-25.51 -52.77,-61.08 -53.34,-106.84z"/>
    <path id="6" class="fil0" d="M3135.27 780.29c-17.71,0 -32.72,5.93 -44.82,17.79 -12.1,11.97 -19.05,27.18 -20.51,45.76l129.98 0c-1.12,-19.02 -7.51,-34.35 -19.38,-46.1 -11.77,-11.63 -26.89,-17.45 -45.27,-17.45zm67.23 170.05l105.1 0c-5.71,36.92 -23.86,66.34 -54.45,88.38 -30.71,21.92 -69.36,32.89 -115.98,32.89 -56.81,0 -101.4,-16.45 -133.56,-49.34 -32.16,-32.89 -48.3,-78.2 -48.3,-135.81 0,-57.73 16.03,-103.6 48.19,-137.72 32.04,-34.01 75.29,-51.12 129.75,-51.12 53.9,0 96.7,16.33 128.52,48.89 31.83,32.55 47.85,76.18 47.85,130.77l0 32.78 -241.36 0 0 7.16c0,21.48 6.5,38.82 19.5,52.14 13.11,13.31 30.14,20.02 51.09,20.02 15.58,0 29.03,-3.47 40.34,-10.51 11.43,-6.94 19.16,-16.45 23.31,-28.53z"/>
    <path id="7" class="fil0" d="M3354.55 1063.11l0 -356.88 113.29 0 0 67.13 2.24 0c9.19,-24.06 23.19,-42.4 41.91,-55.05 18.71,-12.64 41.57,-19.01 68.79,-19.01 39.56,0 70.15,11.74 91.66,35.35 21.63,23.6 32.38,56.72 32.38,99.34l0 229.12 -116.19 0 0 -204.17c0,-20.59 -4.93,-36.47 -14.57,-47.88 -9.75,-11.3 -24.09,-17.01 -42.91,-17.01 -18.38,0 -32.95,6.16 -43.82,18.68 -10.86,12.42 -16.24,28.64 -16.24,48.45l0 201.93 -116.54 0z"/>
    <path id="8" class="fil0" d="M3876.49 706.23l0 372.98c0,36.03 -11.77,63.77 -35.41,83.24 -23.64,19.46 -57.48,29.09 -101.52,29.09 -14.45,0 -25.77,-0.34 -34.06,-1.24l0 -82.67c4.37,0.45 8.96,0.67 13.78,0.67 14.46,0 24.88,-2.57 31.26,-7.83 6.5,-5.26 9.75,-13.87 9.75,-25.84l0 -368.4 116.2 0zm-15.8 -45.31c-11.32,10.97 -25.44,16.45 -42.36,16.45 -16.8,0 -30.92,-5.48 -42.46,-16.45 -11.55,-10.85 -17.26,-24.39 -17.26,-40.61 0,-15.99 5.71,-29.42 17.26,-40.27 11.54,-10.96 25.66,-16.45 42.46,-16.45 16.92,0 31.04,5.37 42.36,16.23 11.43,10.85 17.14,24.27 17.14,40.49 0,16.22 -5.71,29.76 -17.14,40.61z"/>
    <path id="9" class="fil0" d="M4081.32 988.37c18.15,0 33.84,-5.03 46.83,-15.1 13,-10.07 19.5,-22.82 19.5,-38.37l0 -24.5 -64.99 4.25c-15.12,1.12 -26.78,4.92 -35.07,11.63 -8.4,6.61 -12.55,15.22 -12.55,25.74 0,11.07 4.26,20.02 12.66,26.51 8.4,6.6 19.61,9.84 33.62,9.84zm-41.35 79.99c-33.73,0 -62.19,-10.18 -85.38,-30.54 -23.2,-20.25 -34.74,-46.31 -34.74,-77.97 0,-33.23 12.33,-59.07 37.09,-77.64 24.76,-18.57 60.4,-29.31 107.01,-32.11l83.7 -4.92 0 -20.36c0,-13.99 -4.59,-24.84 -13.78,-32.56 -9.19,-7.83 -21.51,-11.63 -37.09,-11.63 -15.35,0 -27.9,3.47 -37.54,10.62 -9.74,7.05 -15.57,16.34 -17.25,27.64l-104.77 0c1.79,-36.92 17.37,-66.34 46.95,-88.27 29.58,-21.93 69.02,-33 118.55,-33 47.73,0 86.06,11.07 115.19,33.34 29.13,22.15 43.7,51.23 43.7,87.26l0 244.89 -113.29 0 0 -50.8 -2.35 0c-9.3,17.46 -23.75,31.22 -43.25,41.17 -19.5,9.85 -40.45,14.88 -62.75,14.88z"/>
    <path id="10" class="fil0" d="M4368.17 1194.55c-27.12,0 -41.24,-0.11 -42.24,-0.33l0 -87.82c2.13,0.45 10.53,0.67 25.21,0.67 18.38,0 32.05,-2.46 41.01,-7.38 8.96,-4.93 14.23,-12.76 15.8,-23.49l0.67 -5.93c0.22,-3.92 0.22,-6.27 0,-7.16l-120.45 -356.88 128.29 0 64.66 269.73 2.02 0 64.31 -269.73 122.81 0 -114.29 355.87c-15.24,47.88 -37.31,81.89 -66,102.14 -28.57,20.14 -69.25,30.31 -121.8,30.31z"/>
    <path id="11" class="fil0" d="M4838.56 988.37c18.15,0 33.84,-5.03 46.84,-15.1 13,-10.07 19.5,-22.82 19.5,-38.37l0 -24.5 -64.99 4.25c-15.13,1.12 -26.78,4.92 -35.08,11.63 -8.4,6.61 -12.54,15.22 -12.54,25.74 0,11.07 4.25,20.02 12.66,26.51 8.4,6.6 19.61,9.84 33.61,9.84zm-41.35 79.99c-33.72,0 -62.18,-10.18 -85.38,-30.54 -23.19,-20.25 -34.73,-46.31 -34.73,-77.97 0,-33.23 12.32,-59.07 37.09,-77.64 24.76,-18.57 60.39,-29.31 107,-32.11l83.71 -4.92 0 -20.36c0,-13.99 -4.6,-24.84 -13.79,-32.56 -9.18,-7.83 -21.51,-11.63 -37.08,-11.63 -15.36,0 -27.9,3.47 -37.54,10.62 -9.75,7.05 -15.58,16.34 -17.26,27.64l-104.77 0c1.8,-36.92 17.37,-66.34 46.95,-88.27 29.59,-21.93 69.03,-33 118.56,-33 47.73,0 86.05,11.07 115.18,33.34 29.14,22.15 43.7,51.23 43.7,87.26l0 244.89 -113.28 0 0 -50.8 -2.35 0c-9.3,17.46 -23.76,31.22 -43.25,41.17 -19.5,9.85 -40.46,14.88 -62.76,14.88z"/>
   </g>
  </g>
  <polygon class="fil1" points="-0.01,0 5291.67,0 5291.67,1761.06 -0.01,1761.06 "/>
 </g>
</svg>
